<svg preserveAspectRatio="none" viewBox="26.457473754882812 21.65013885498047 150.927734375 131.46644592285156" xmlns="http://www.w3.org/2000/svg">
  <path fill="#FF0066" d="M26.9,-51.5C34.8,-42,41.2,-34.7,50.8,-26.5C60.3,-18.3,73.2,-9.1,76.5,1.9C79.8,12.9,73.5,25.9,63.8,33.8C54,41.8,40.8,44.7,29.5,46.8C18.3,48.9,9.2,50.2,-0.8,51.5C-10.7,52.9,-21.4,54.3,-31.4,51.5C-41.3,48.6,-50.4,41.5,-58.9,32.2C-67.4,22.9,-75.3,11.5,-73.2,1.2C-71.1,-9.1,-59.1,-18.1,-52.4,-30.5C-45.7,-42.9,-44.3,-58.6,-36.4,-68C-28.6,-77.5,-14.3,-80.7,-2.4,-76.6C9.5,-72.4,19,-60.9,26.9,-51.5Z" transform="translate(100 100)"></path>
</svg>