<svg preserveAspectRatio="none" viewBox="0 0 1440 875"  xmlns="http://www.w3.org/2000/svg" xmlns:xlink="http://www.w3.org/1999/xlink">
<mask  id="mask0" mask-type="alpha" maskUnits="userSpaceOnUse" x="0" y="0" width="1441" height="875">
<path d="M0.000121199 473.168V0H1440L1440 830.481C1397.39 845.485 1349.62 857.94 1297.95 866.914C1163.63 890.241 1040.5 858.914 911.421 826.072C824.004 803.83 733.856 780.894 635.651 773.768C529.295 766.05 411.29 775.541 297.124 784.724C190.535 793.298 87.293 801.602 0 795.381L0.000121199 473.168C8.07994e-05 473.168 0.000161599 473.168 0.000121199 473.168Z"/>
<path d="M0.000121199 473.168V0H1440L1440 830.481C1397.39 845.485 1349.62 857.94 1297.95 866.914C1163.63 890.241 1040.5 858.914 911.421 826.072C824.004 803.83 733.856 780.894 635.651 773.768C529.295 766.05 411.29 775.541 297.124 784.724C190.535 793.298 87.293 801.602 0 795.381L0.000121199 473.168C8.07994e-05 473.168 0.000161599 473.168 0.000121199 473.168Z"/>
</mask>
<g mask="url(#mask0)">
<rect width="1440" height="875" transform="matrix(-1 0 0 1 1440 0)" fill="black"/>
</g>
<defs>
<pattern id="pattern0" patternContentUnits="objectBoundingBox" width="1" height="1">
<use xlink:href="#image0" transform="translate(0 -0.0500382) scale(0.000334225 0.000550038)"/>
</pattern>
</defs>
</svg>
