<svg width="24" height="24" viewBox="0 0 24 24" fill="none" xmlns="http://www.w3.org/2000/svg">
<path d="M16.75 7.00004H14.5H13.75H12.625H11.5L10.75 7.00006L9.625 7.00007L8.875 7L8.5 7.00004H6.25C5.65326 7.00004 5.08097 7.2258 4.65901 7.62766C4.23705 8.02953 4 8.57457 4 9.14289V14.8572C4 15.4255 4.23705 15.9705 4.65901 16.3724C5.08097 16.7742 5.65326 17 6.25 17H16.75C17.3467 17 17.919 16.7742 18.341 16.3724C18.7629 15.9705 19 15.4255 19 14.8572V9.14289C19 8.57457 18.7629 8.02953 18.341 7.62766C17.919 7.2258 17.3467 7.00004 16.75 7.00004ZM5.5 9.14289C5.5 8.95345 5.57902 8.77177 5.71967 8.63781C5.86032 8.50386 6.05109 8.4286 6.25 8.4286H7C7 8.80748 6.84196 9.17084 6.56066 9.43875C6.27936 9.70666 5.89782 9.85717 5.5 9.85717V9.14289ZM6.25 15.5714C6.05109 15.5714 5.86032 15.4962 5.71967 15.3622C5.57902 15.2283 5.5 15.0466 5.5 14.8572V14.1429C5.89782 14.1429 6.27936 14.2934 6.56066 14.5613C6.84196 14.8292 7 15.1926 7 15.5714H6.25ZM17.5 14.8572C17.5 15.0466 17.421 15.2283 17.2803 15.3622C17.1397 15.4962 16.9489 15.5714 16.75 15.5714H16C16 15.1926 16.158 14.8292 16.4393 14.5613C16.7206 14.2934 17.1022 14.1429 17.5 14.1429V14.8572ZM17.5 12.7143C16.7044 12.7143 15.9413 13.0153 15.3787 13.5511C14.8161 14.087 14.5 14.8137 14.5 15.5714H8.5C8.5 14.8137 8.18393 14.087 7.62132 13.5511C7.05871 13.0153 6.29565 12.7143 5.5 12.7143V11.2857C6.29565 11.2857 7.05871 10.9847 7.62132 10.4489C8.18393 9.91309 8.5 9.18636 8.5 8.4286H14.5C14.5 9.18636 14.8161 9.91309 15.3787 10.4489C15.9413 10.9847 16.7044 11.2857 17.5 11.2857V12.7143ZM17.5 9.85717C17.1022 9.85717 16.7206 9.70666 16.4393 9.43875C16.158 9.17084 16 8.80748 16 8.4286H16.75C16.9489 8.4286 17.1397 8.50386 17.2803 8.63781C17.421 8.77177 17.5 8.95345 17.5 9.14289V9.85717ZM11.5 9.85717C11.055 9.85717 10.62 9.98285 10.25 10.2183C9.87996 10.4538 9.59157 10.7884 9.42127 11.18C9.25097 11.5715 9.20642 12.0024 9.29323 12.4181C9.38005 12.8337 9.59434 13.2156 9.90901 13.5152C10.2237 13.8149 10.6246 14.019 11.061 14.1017C11.4975 14.1844 11.9499 14.1419 12.361 13.9798C12.7722 13.8176 13.1236 13.5429 13.3708 13.1905C13.618 12.8381 13.75 12.4238 13.75 12C13.75 11.4317 13.5129 10.8867 13.091 10.4848C12.669 10.0829 12.0967 9.85717 11.5 9.85717ZM11.5 12.7143C11.3517 12.7143 11.2067 12.6724 11.0833 12.5939C10.96 12.5154 10.8639 12.4039 10.8071 12.2734C10.7503 12.1428 10.7355 11.9992 10.7644 11.8607C10.7933 11.7221 10.8648 11.5948 10.9697 11.4949C11.0746 11.3951 11.2082 11.327 11.3537 11.2995C11.4992 11.2719 11.65 11.286 11.787 11.3401C11.9241 11.3942 12.0412 11.4857 12.1236 11.6032C12.206 11.7206 12.25 11.8587 12.25 12C12.25 12.1895 12.171 12.3711 12.0303 12.5051C11.8897 12.639 11.6989 12.7143 11.5 12.7143Z" fill="#F56737"/>
</svg>
