<svg width="24" height="24" viewBox="0 0 24 24" fill="none" xmlns="http://www.w3.org/2000/svg">
<path d="M19.94 4.465C19.8639 4.28174 19.7183 4.13611 19.535 4.06C19.4448 4.02157 19.348 4.00118 19.25 4H14.75C14.5511 4 14.3603 4.07902 14.2197 4.21967C14.079 4.36032 14 4.55109 14 4.75C14 4.94891 14.079 5.13968 14.2197 5.28033C14.3603 5.42098 14.5511 5.5 14.75 5.5H17.4425L6.5 16.4425V13.75C6.5 13.5511 6.42098 13.3603 6.28033 13.2197C6.13968 13.079 5.94891 13 5.75 13C5.55109 13 5.36032 13.079 5.21967 13.2197C5.07902 13.3603 5 13.5511 5 13.75V18.25C5.00118 18.348 5.02157 18.4448 5.06 18.535C5.13611 18.7183 5.28174 18.8639 5.465 18.94C5.55517 18.9784 5.65199 18.9988 5.75 19H10.25C10.4489 19 10.6397 18.921 10.7803 18.7803C10.921 18.6397 11 18.4489 11 18.25C11 18.0511 10.921 17.8603 10.7803 17.7197C10.6397 17.579 10.4489 17.5 10.25 17.5H7.5575L18.5 6.5575V9.25C18.5 9.44891 18.579 9.63968 18.7197 9.78033C18.8603 9.92098 19.0511 10 19.25 10C19.4489 10 19.6397 9.92098 19.7803 9.78033C19.921 9.63968 20 9.44891 20 9.25V4.75C19.9988 4.65199 19.9784 4.55517 19.94 4.465Z" fill="#F56737"/>
</svg>
